<mxfile host="app.diagrams.net" modified="2022-06-11T14:37:42.880Z" agent="5.0 (Windows NT 10.0; Win64; x64) AppleWebKit/537.36 (KHTML, like Gecko) Chrome/102.0.5005.63 Safari/537.36" etag="YzoglUVnnmJMTV5JkScy" version="19.0.3" type="github">
  <diagram id="6dLzQeESWL0qXPH8KZZd" name="Page-1">
    <mxGraphModel dx="948" dy="508" grid="1" gridSize="10" guides="1" tooltips="1" connect="1" arrows="1" fold="1" page="1" pageScale="1" pageWidth="827" pageHeight="1169" math="0" shadow="0">
      <root>
        <mxCell id="0" />
        <mxCell id="1" parent="0" />
        <mxCell id="xSYHZnATKcrCsA-c4XPN-14" value="" style="group" vertex="1" connectable="0" parent="1">
          <mxGeometry x="320" y="270" width="120" height="210" as="geometry" />
        </mxCell>
        <mxCell id="xSYHZnATKcrCsA-c4XPN-2" value="" style="verticalLabelPosition=bottom;shadow=0;dashed=0;align=center;html=1;verticalAlign=top;shape=mxgraph.electrical.logic_gates.logic_gate;operation=xor;rotation=-90;" vertex="1" parent="xSYHZnATKcrCsA-c4XPN-14">
          <mxGeometry x="-5" y="160" width="60" height="40" as="geometry" />
        </mxCell>
        <mxCell id="xSYHZnATKcrCsA-c4XPN-3" value="&lt;span style=&quot;&quot;&gt;Reg&lt;/span&gt;" style="rounded=0;whiteSpace=wrap;html=1;" vertex="1" parent="xSYHZnATKcrCsA-c4XPN-14">
          <mxGeometry x="80" width="40" height="130" as="geometry" />
        </mxCell>
        <mxCell id="xSYHZnATKcrCsA-c4XPN-4" value="" style="triangle;whiteSpace=wrap;html=1;rotation=-90;" vertex="1" parent="xSYHZnATKcrCsA-c4XPN-14">
          <mxGeometry x="87.88" y="100" width="24.25" height="34.75" as="geometry" />
        </mxCell>
        <mxCell id="xSYHZnATKcrCsA-c4XPN-13" style="edgeStyle=orthogonalEdgeStyle;rounded=0;orthogonalLoop=1;jettySize=auto;html=1;" edge="1" parent="xSYHZnATKcrCsA-c4XPN-14" source="xSYHZnATKcrCsA-c4XPN-5" target="xSYHZnATKcrCsA-c4XPN-4">
          <mxGeometry relative="1" as="geometry" />
        </mxCell>
        <mxCell id="xSYHZnATKcrCsA-c4XPN-5" value="" style="shape=or;whiteSpace=wrap;html=1;rotation=-90;" vertex="1" parent="xSYHZnATKcrCsA-c4XPN-14">
          <mxGeometry x="83.94" y="160" width="32.12" height="40" as="geometry" />
        </mxCell>
        <mxCell id="xSYHZnATKcrCsA-c4XPN-8" style="edgeStyle=orthogonalEdgeStyle;rounded=0;orthogonalLoop=1;jettySize=auto;html=1;exitX=1;exitY=0.5;exitDx=0;exitDy=-5;exitPerimeter=0;entryX=0.004;entryY=0.307;entryDx=0;entryDy=0;entryPerimeter=0;" edge="1" parent="xSYHZnATKcrCsA-c4XPN-14" source="xSYHZnATKcrCsA-c4XPN-6" target="xSYHZnATKcrCsA-c4XPN-3">
          <mxGeometry relative="1" as="geometry" />
        </mxCell>
        <mxCell id="xSYHZnATKcrCsA-c4XPN-6" value="Mux" style="shadow=0;dashed=0;align=center;html=1;strokeWidth=1;shape=mxgraph.electrical.abstract.mux2;" vertex="1" parent="xSYHZnATKcrCsA-c4XPN-14">
          <mxGeometry width="50" height="90" as="geometry" />
        </mxCell>
        <mxCell id="xSYHZnATKcrCsA-c4XPN-12" style="edgeStyle=orthogonalEdgeStyle;rounded=0;orthogonalLoop=1;jettySize=auto;html=1;exitX=1;exitY=0.5;exitDx=0;exitDy=0;exitPerimeter=0;" edge="1" parent="xSYHZnATKcrCsA-c4XPN-14" source="xSYHZnATKcrCsA-c4XPN-2" target="xSYHZnATKcrCsA-c4XPN-6">
          <mxGeometry relative="1" as="geometry" />
        </mxCell>
        <mxCell id="xSYHZnATKcrCsA-c4XPN-15" value="" style="group" vertex="1" connectable="0" parent="1">
          <mxGeometry x="480" y="270" width="120" height="210" as="geometry" />
        </mxCell>
        <mxCell id="xSYHZnATKcrCsA-c4XPN-16" value="" style="verticalLabelPosition=bottom;shadow=0;dashed=0;align=center;html=1;verticalAlign=top;shape=mxgraph.electrical.logic_gates.logic_gate;operation=xor;rotation=-90;" vertex="1" parent="xSYHZnATKcrCsA-c4XPN-15">
          <mxGeometry x="-5" y="160" width="60" height="40" as="geometry" />
        </mxCell>
        <mxCell id="xSYHZnATKcrCsA-c4XPN-17" value="&lt;span style=&quot;&quot;&gt;Reg&lt;/span&gt;" style="rounded=0;whiteSpace=wrap;html=1;" vertex="1" parent="xSYHZnATKcrCsA-c4XPN-15">
          <mxGeometry x="80" width="40" height="130" as="geometry" />
        </mxCell>
        <mxCell id="xSYHZnATKcrCsA-c4XPN-18" value="" style="triangle;whiteSpace=wrap;html=1;rotation=-90;" vertex="1" parent="xSYHZnATKcrCsA-c4XPN-15">
          <mxGeometry x="87.88" y="100" width="24.25" height="34.75" as="geometry" />
        </mxCell>
        <mxCell id="xSYHZnATKcrCsA-c4XPN-19" style="edgeStyle=orthogonalEdgeStyle;rounded=0;orthogonalLoop=1;jettySize=auto;html=1;" edge="1" parent="xSYHZnATKcrCsA-c4XPN-15" source="xSYHZnATKcrCsA-c4XPN-20" target="xSYHZnATKcrCsA-c4XPN-18">
          <mxGeometry relative="1" as="geometry" />
        </mxCell>
        <mxCell id="xSYHZnATKcrCsA-c4XPN-20" value="" style="shape=or;whiteSpace=wrap;html=1;rotation=-90;" vertex="1" parent="xSYHZnATKcrCsA-c4XPN-15">
          <mxGeometry x="83.94" y="160" width="32.12" height="40" as="geometry" />
        </mxCell>
        <mxCell id="xSYHZnATKcrCsA-c4XPN-21" style="edgeStyle=orthogonalEdgeStyle;rounded=0;orthogonalLoop=1;jettySize=auto;html=1;exitX=1;exitY=0.5;exitDx=0;exitDy=-5;exitPerimeter=0;entryX=0.004;entryY=0.307;entryDx=0;entryDy=0;entryPerimeter=0;" edge="1" parent="xSYHZnATKcrCsA-c4XPN-15" source="xSYHZnATKcrCsA-c4XPN-22" target="xSYHZnATKcrCsA-c4XPN-17">
          <mxGeometry relative="1" as="geometry" />
        </mxCell>
        <mxCell id="xSYHZnATKcrCsA-c4XPN-22" value="Mux" style="shadow=0;dashed=0;align=center;html=1;strokeWidth=1;shape=mxgraph.electrical.abstract.mux2;" vertex="1" parent="xSYHZnATKcrCsA-c4XPN-15">
          <mxGeometry width="50" height="90" as="geometry" />
        </mxCell>
        <mxCell id="xSYHZnATKcrCsA-c4XPN-23" style="edgeStyle=orthogonalEdgeStyle;rounded=0;orthogonalLoop=1;jettySize=auto;html=1;exitX=1;exitY=0.5;exitDx=0;exitDy=0;exitPerimeter=0;" edge="1" parent="xSYHZnATKcrCsA-c4XPN-15" source="xSYHZnATKcrCsA-c4XPN-16" target="xSYHZnATKcrCsA-c4XPN-22">
          <mxGeometry relative="1" as="geometry" />
        </mxCell>
        <mxCell id="xSYHZnATKcrCsA-c4XPN-33" value="" style="group" vertex="1" connectable="0" parent="1">
          <mxGeometry x="640" y="270" width="120" height="210" as="geometry" />
        </mxCell>
        <mxCell id="xSYHZnATKcrCsA-c4XPN-34" value="" style="verticalLabelPosition=bottom;shadow=0;dashed=0;align=center;html=1;verticalAlign=top;shape=mxgraph.electrical.logic_gates.logic_gate;operation=xor;rotation=-90;" vertex="1" parent="xSYHZnATKcrCsA-c4XPN-33">
          <mxGeometry x="-5" y="160" width="60" height="40" as="geometry" />
        </mxCell>
        <mxCell id="xSYHZnATKcrCsA-c4XPN-35" value="&lt;span style=&quot;&quot;&gt;Reg&lt;/span&gt;" style="rounded=0;whiteSpace=wrap;html=1;" vertex="1" parent="xSYHZnATKcrCsA-c4XPN-33">
          <mxGeometry x="80" width="40" height="130" as="geometry" />
        </mxCell>
        <mxCell id="xSYHZnATKcrCsA-c4XPN-36" value="" style="triangle;whiteSpace=wrap;html=1;rotation=-90;" vertex="1" parent="xSYHZnATKcrCsA-c4XPN-33">
          <mxGeometry x="87.88" y="100" width="24.25" height="34.75" as="geometry" />
        </mxCell>
        <mxCell id="xSYHZnATKcrCsA-c4XPN-37" style="edgeStyle=orthogonalEdgeStyle;rounded=0;orthogonalLoop=1;jettySize=auto;html=1;" edge="1" parent="xSYHZnATKcrCsA-c4XPN-33" source="xSYHZnATKcrCsA-c4XPN-38" target="xSYHZnATKcrCsA-c4XPN-36">
          <mxGeometry relative="1" as="geometry" />
        </mxCell>
        <mxCell id="xSYHZnATKcrCsA-c4XPN-38" value="" style="shape=or;whiteSpace=wrap;html=1;rotation=-90;" vertex="1" parent="xSYHZnATKcrCsA-c4XPN-33">
          <mxGeometry x="83.94" y="160" width="32.12" height="40" as="geometry" />
        </mxCell>
        <mxCell id="xSYHZnATKcrCsA-c4XPN-39" style="edgeStyle=orthogonalEdgeStyle;rounded=0;orthogonalLoop=1;jettySize=auto;html=1;exitX=1;exitY=0.5;exitDx=0;exitDy=-5;exitPerimeter=0;entryX=0.004;entryY=0.307;entryDx=0;entryDy=0;entryPerimeter=0;" edge="1" parent="xSYHZnATKcrCsA-c4XPN-33" source="xSYHZnATKcrCsA-c4XPN-40" target="xSYHZnATKcrCsA-c4XPN-35">
          <mxGeometry relative="1" as="geometry" />
        </mxCell>
        <mxCell id="xSYHZnATKcrCsA-c4XPN-40" value="Mux" style="shadow=0;dashed=0;align=center;html=1;strokeWidth=1;shape=mxgraph.electrical.abstract.mux2;" vertex="1" parent="xSYHZnATKcrCsA-c4XPN-33">
          <mxGeometry width="50" height="90" as="geometry" />
        </mxCell>
        <mxCell id="xSYHZnATKcrCsA-c4XPN-41" style="edgeStyle=orthogonalEdgeStyle;rounded=0;orthogonalLoop=1;jettySize=auto;html=1;exitX=1;exitY=0.5;exitDx=0;exitDy=0;exitPerimeter=0;" edge="1" parent="xSYHZnATKcrCsA-c4XPN-33" source="xSYHZnATKcrCsA-c4XPN-34" target="xSYHZnATKcrCsA-c4XPN-40">
          <mxGeometry relative="1" as="geometry" />
        </mxCell>
        <mxCell id="xSYHZnATKcrCsA-c4XPN-50" style="edgeStyle=orthogonalEdgeStyle;rounded=0;orthogonalLoop=1;jettySize=auto;html=1;entryX=0;entryY=0.20555555555555555;entryDx=0;entryDy=3;entryPerimeter=0;" edge="1" parent="1" source="xSYHZnATKcrCsA-c4XPN-26" target="xSYHZnATKcrCsA-c4XPN-6">
          <mxGeometry relative="1" as="geometry" />
        </mxCell>
        <mxCell id="xSYHZnATKcrCsA-c4XPN-26" value="Reg" style="rounded=0;whiteSpace=wrap;html=1;" vertex="1" parent="1">
          <mxGeometry x="240" y="270" width="40" height="130" as="geometry" />
        </mxCell>
        <mxCell id="xSYHZnATKcrCsA-c4XPN-27" value="" style="triangle;whiteSpace=wrap;html=1;rotation=-90;" vertex="1" parent="1">
          <mxGeometry x="247.88" y="370" width="24.25" height="34.75" as="geometry" />
        </mxCell>
        <mxCell id="xSYHZnATKcrCsA-c4XPN-28" style="edgeStyle=orthogonalEdgeStyle;rounded=0;orthogonalLoop=1;jettySize=auto;html=1;" edge="1" parent="1" source="xSYHZnATKcrCsA-c4XPN-29" target="xSYHZnATKcrCsA-c4XPN-27">
          <mxGeometry relative="1" as="geometry" />
        </mxCell>
        <mxCell id="xSYHZnATKcrCsA-c4XPN-29" value="" style="shape=or;whiteSpace=wrap;html=1;rotation=-90;" vertex="1" parent="1">
          <mxGeometry x="243.94" y="430" width="32.12" height="40" as="geometry" />
        </mxCell>
        <mxCell id="xSYHZnATKcrCsA-c4XPN-42" value="" style="endArrow=none;html=1;rounded=0;" edge="1" parent="1">
          <mxGeometry width="50" height="50" relative="1" as="geometry">
            <mxPoint x="190" y="240" as="sourcePoint" />
            <mxPoint x="280" y="240" as="targetPoint" />
          </mxGeometry>
        </mxCell>
        <mxCell id="xSYHZnATKcrCsA-c4XPN-43" value="" style="endArrow=none;html=1;rounded=0;" edge="1" parent="1">
          <mxGeometry width="50" height="50" relative="1" as="geometry">
            <mxPoint x="190" y="240" as="sourcePoint" />
            <mxPoint x="610" y="240" as="targetPoint" />
          </mxGeometry>
        </mxCell>
        <mxCell id="xSYHZnATKcrCsA-c4XPN-47" style="edgeStyle=orthogonalEdgeStyle;rounded=0;orthogonalLoop=1;jettySize=auto;html=1;entryX=0;entryY=0.20555555555555555;entryDx=0;entryDy=3;entryPerimeter=0;" edge="1" parent="1" source="xSYHZnATKcrCsA-c4XPN-3" target="xSYHZnATKcrCsA-c4XPN-22">
          <mxGeometry relative="1" as="geometry" />
        </mxCell>
        <mxCell id="xSYHZnATKcrCsA-c4XPN-49" style="edgeStyle=orthogonalEdgeStyle;rounded=0;orthogonalLoop=1;jettySize=auto;html=1;entryX=0;entryY=0.20555555555555555;entryDx=0;entryDy=3;entryPerimeter=0;" edge="1" parent="1" source="xSYHZnATKcrCsA-c4XPN-17" target="xSYHZnATKcrCsA-c4XPN-40">
          <mxGeometry relative="1" as="geometry" />
        </mxCell>
        <mxCell id="xSYHZnATKcrCsA-c4XPN-51" value="" style="endArrow=classic;html=1;rounded=0;entryX=-0.011;entryY=0.309;entryDx=0;entryDy=0;entryPerimeter=0;" edge="1" parent="1" target="xSYHZnATKcrCsA-c4XPN-26">
          <mxGeometry width="50" height="50" relative="1" as="geometry">
            <mxPoint x="210" y="240" as="sourcePoint" />
            <mxPoint x="210" y="310" as="targetPoint" />
            <Array as="points">
              <mxPoint x="210" y="310" />
            </Array>
          </mxGeometry>
        </mxCell>
        <mxCell id="xSYHZnATKcrCsA-c4XPN-52" value="" style="endArrow=classic;html=1;rounded=0;entryX=0;entryY=0.6166666666666667;entryDx=0;entryDy=3;entryPerimeter=0;" edge="1" parent="1" target="xSYHZnATKcrCsA-c4XPN-6">
          <mxGeometry width="50" height="50" relative="1" as="geometry">
            <mxPoint x="290" y="240" as="sourcePoint" />
            <mxPoint x="320" y="327.5" as="targetPoint" />
            <Array as="points">
              <mxPoint x="290" y="328" />
            </Array>
          </mxGeometry>
        </mxCell>
        <mxCell id="xSYHZnATKcrCsA-c4XPN-53" value="" style="endArrow=classic;html=1;rounded=0;entryX=0;entryY=0.6166666666666667;entryDx=0;entryDy=3;entryPerimeter=0;" edge="1" parent="1">
          <mxGeometry width="50" height="50" relative="1" as="geometry">
            <mxPoint x="450" y="240" as="sourcePoint" />
            <mxPoint x="480" y="328.5" as="targetPoint" />
            <Array as="points">
              <mxPoint x="450" y="328" />
            </Array>
          </mxGeometry>
        </mxCell>
        <mxCell id="xSYHZnATKcrCsA-c4XPN-54" value="" style="endArrow=classic;html=1;rounded=0;entryX=0;entryY=0.6166666666666667;entryDx=0;entryDy=3;entryPerimeter=0;" edge="1" parent="1">
          <mxGeometry width="50" height="50" relative="1" as="geometry">
            <mxPoint x="609.9999999999999" y="240" as="sourcePoint" />
            <mxPoint x="640" y="328.5" as="targetPoint" />
            <Array as="points">
              <mxPoint x="610" y="328" />
            </Array>
          </mxGeometry>
        </mxCell>
        <mxCell id="xSYHZnATKcrCsA-c4XPN-55" value="New element" style="rounded=0;whiteSpace=wrap;html=1;" vertex="1" parent="1">
          <mxGeometry x="110" y="230" width="80" height="20" as="geometry" />
        </mxCell>
        <mxCell id="xSYHZnATKcrCsA-c4XPN-56" value="&lt;font style=&quot;font-size: 10px;&quot;&gt;Comparison result&lt;/font&gt;" style="text;html=1;strokeColor=none;fillColor=none;align=center;verticalAlign=middle;whiteSpace=wrap;rounded=0;" vertex="1" parent="1">
          <mxGeometry x="123.94" y="510" width="120" height="30" as="geometry" />
        </mxCell>
        <mxCell id="xSYHZnATKcrCsA-c4XPN-57" value="0" style="text;html=1;strokeColor=none;fillColor=none;align=center;verticalAlign=middle;whiteSpace=wrap;rounded=0;fontSize=10;" vertex="1" parent="1">
          <mxGeometry x="260" y="510" width="60" height="30" as="geometry" />
        </mxCell>
        <mxCell id="xSYHZnATKcrCsA-c4XPN-58" value="0" style="text;html=1;strokeColor=none;fillColor=none;align=center;verticalAlign=middle;whiteSpace=wrap;rounded=0;fontSize=10;" vertex="1" parent="1">
          <mxGeometry x="420" y="510" width="60" height="30" as="geometry" />
        </mxCell>
        <mxCell id="xSYHZnATKcrCsA-c4XPN-59" value="1" style="text;html=1;strokeColor=none;fillColor=none;align=center;verticalAlign=middle;whiteSpace=wrap;rounded=0;fontSize=10;" vertex="1" parent="1">
          <mxGeometry x="580" y="510" width="60" height="30" as="geometry" />
        </mxCell>
        <mxCell id="xSYHZnATKcrCsA-c4XPN-60" value="1" style="text;html=1;strokeColor=none;fillColor=none;align=center;verticalAlign=middle;whiteSpace=wrap;rounded=0;fontSize=10;" vertex="1" parent="1">
          <mxGeometry x="740" y="510" width="60" height="30" as="geometry" />
        </mxCell>
        <mxCell id="xSYHZnATKcrCsA-c4XPN-69" value="" style="group" vertex="1" connectable="0" parent="1">
          <mxGeometry x="270" y="490" width="66" as="geometry" />
        </mxCell>
        <mxCell id="xSYHZnATKcrCsA-c4XPN-73" value="" style="group" vertex="1" connectable="0" parent="xSYHZnATKcrCsA-c4XPN-69">
          <mxGeometry width="66" as="geometry" />
        </mxCell>
        <mxCell id="xSYHZnATKcrCsA-c4XPN-61" style="edgeStyle=orthogonalEdgeStyle;rounded=0;orthogonalLoop=1;jettySize=auto;html=1;entryX=0;entryY=0.75;entryDx=0;entryDy=0;entryPerimeter=0;fontSize=10;" edge="1" parent="xSYHZnATKcrCsA-c4XPN-73" source="xSYHZnATKcrCsA-c4XPN-57" target="xSYHZnATKcrCsA-c4XPN-29">
          <mxGeometry relative="1" as="geometry">
            <Array as="points">
              <mxPoint x="20" />
              <mxPoint />
            </Array>
          </mxGeometry>
        </mxCell>
        <mxCell id="xSYHZnATKcrCsA-c4XPN-64" value="" style="endArrow=classic;html=1;rounded=0;fontSize=10;entryX=0.028;entryY=0.275;entryDx=0;entryDy=0;entryPerimeter=0;" edge="1" parent="xSYHZnATKcrCsA-c4XPN-73" target="xSYHZnATKcrCsA-c4XPN-2">
          <mxGeometry width="50" height="50" relative="1" as="geometry">
            <mxPoint x="20" as="sourcePoint" />
            <mxPoint x="70" as="targetPoint" />
            <Array as="points">
              <mxPoint x="66" />
            </Array>
          </mxGeometry>
        </mxCell>
        <mxCell id="xSYHZnATKcrCsA-c4XPN-77" style="edgeStyle=orthogonalEdgeStyle;rounded=0;orthogonalLoop=1;jettySize=auto;html=1;entryX=0;entryY=0.75;entryDx=0;entryDy=0;entryPerimeter=0;fontSize=10;" edge="1" parent="1">
          <mxGeometry relative="1" as="geometry">
            <mxPoint x="449.9999999999999" y="510" as="sourcePoint" />
            <mxPoint x="430.0000000000001" y="466.05999999999995" as="targetPoint" />
            <Array as="points">
              <mxPoint x="450" y="490" />
              <mxPoint x="430" y="490" />
            </Array>
          </mxGeometry>
        </mxCell>
        <mxCell id="xSYHZnATKcrCsA-c4XPN-78" value="" style="endArrow=classic;html=1;rounded=0;fontSize=10;entryX=0.028;entryY=0.275;entryDx=0;entryDy=0;entryPerimeter=0;" edge="1" parent="1">
          <mxGeometry width="50" height="50" relative="1" as="geometry">
            <mxPoint x="450.0000000000001" y="490" as="sourcePoint" />
            <mxPoint x="496" y="478.31999999999994" as="targetPoint" />
            <Array as="points">
              <mxPoint x="496" y="490" />
            </Array>
          </mxGeometry>
        </mxCell>
        <mxCell id="xSYHZnATKcrCsA-c4XPN-79" value="" style="endArrow=classic;html=1;rounded=0;fontSize=10;entryX=0.037;entryY=0.775;entryDx=0;entryDy=0;entryPerimeter=0;" edge="1" parent="1" target="xSYHZnATKcrCsA-c4XPN-2">
          <mxGeometry width="50" height="50" relative="1" as="geometry">
            <mxPoint x="430" y="490" as="sourcePoint" />
            <mxPoint x="350" y="490" as="targetPoint" />
            <Array as="points">
              <mxPoint x="360" y="490" />
            </Array>
          </mxGeometry>
        </mxCell>
        <mxCell id="xSYHZnATKcrCsA-c4XPN-84" style="edgeStyle=orthogonalEdgeStyle;rounded=0;orthogonalLoop=1;jettySize=auto;html=1;entryX=0;entryY=0.75;entryDx=0;entryDy=0;entryPerimeter=0;fontSize=10;" edge="1" parent="1">
          <mxGeometry relative="1" as="geometry">
            <mxPoint x="608.9999999999999" y="509.97" as="sourcePoint" />
            <mxPoint x="589.0000000000001" y="466.03" as="targetPoint" />
            <Array as="points">
              <mxPoint x="609" y="489.97" />
              <mxPoint x="589" y="489.97" />
            </Array>
          </mxGeometry>
        </mxCell>
        <mxCell id="xSYHZnATKcrCsA-c4XPN-85" value="" style="endArrow=classic;html=1;rounded=0;fontSize=10;entryX=0.028;entryY=0.275;entryDx=0;entryDy=0;entryPerimeter=0;" edge="1" parent="1">
          <mxGeometry width="50" height="50" relative="1" as="geometry">
            <mxPoint x="609.0000000000001" y="489.97" as="sourcePoint" />
            <mxPoint x="655" y="478.28999999999996" as="targetPoint" />
            <Array as="points">
              <mxPoint x="655" y="489.97" />
            </Array>
          </mxGeometry>
        </mxCell>
        <mxCell id="xSYHZnATKcrCsA-c4XPN-86" value="" style="endArrow=classic;html=1;rounded=0;fontSize=10;entryX=0.037;entryY=0.775;entryDx=0;entryDy=0;entryPerimeter=0;" edge="1" parent="1">
          <mxGeometry width="50" height="50" relative="1" as="geometry">
            <mxPoint x="589" y="489.97" as="sourcePoint" />
            <mxPoint x="515" y="477.75" as="targetPoint" />
            <Array as="points">
              <mxPoint x="519" y="489.97" />
            </Array>
          </mxGeometry>
        </mxCell>
        <mxCell id="xSYHZnATKcrCsA-c4XPN-87" style="edgeStyle=orthogonalEdgeStyle;rounded=0;orthogonalLoop=1;jettySize=auto;html=1;entryX=0;entryY=0.75;entryDx=0;entryDy=0;entryPerimeter=0;fontSize=10;" edge="1" parent="1">
          <mxGeometry relative="1" as="geometry">
            <mxPoint x="768.9999999999999" y="509.94000000000005" as="sourcePoint" />
            <mxPoint x="749.0000000000001" y="465.99999999999994" as="targetPoint" />
            <Array as="points">
              <mxPoint x="769" y="489.94" />
              <mxPoint x="749" y="489.94" />
            </Array>
          </mxGeometry>
        </mxCell>
        <mxCell id="xSYHZnATKcrCsA-c4XPN-89" value="" style="endArrow=classic;html=1;rounded=0;fontSize=10;entryX=0.037;entryY=0.775;entryDx=0;entryDy=0;entryPerimeter=0;" edge="1" parent="1">
          <mxGeometry width="50" height="50" relative="1" as="geometry">
            <mxPoint x="749" y="489.94" as="sourcePoint" />
            <mxPoint x="675" y="477.71999999999997" as="targetPoint" />
            <Array as="points">
              <mxPoint x="679" y="489.94" />
            </Array>
          </mxGeometry>
        </mxCell>
        <mxCell id="xSYHZnATKcrCsA-c4XPN-90" value="" style="endArrow=none;html=1;rounded=0;fontSize=10;" edge="1" parent="1">
          <mxGeometry width="50" height="50" relative="1" as="geometry">
            <mxPoint x="200" y="560" as="sourcePoint" />
            <mxPoint x="730" y="560" as="targetPoint" />
          </mxGeometry>
        </mxCell>
        <mxCell id="xSYHZnATKcrCsA-c4XPN-92" value="" style="endArrow=classic;html=1;rounded=0;fontSize=10;entryX=0;entryY=0.25;entryDx=0;entryDy=0;entryPerimeter=0;" edge="1" parent="1" target="xSYHZnATKcrCsA-c4XPN-38">
          <mxGeometry width="50" height="50" relative="1" as="geometry">
            <mxPoint x="730" y="560" as="sourcePoint" />
            <mxPoint x="780" y="510" as="targetPoint" />
          </mxGeometry>
        </mxCell>
        <mxCell id="xSYHZnATKcrCsA-c4XPN-93" value="" style="endArrow=classic;html=1;rounded=0;fontSize=10;entryX=0;entryY=0.25;entryDx=0;entryDy=0;entryPerimeter=0;" edge="1" parent="1">
          <mxGeometry width="50" height="50" relative="1" as="geometry">
            <mxPoint x="570" y="559.94" as="sourcePoint" />
            <mxPoint x="570" y="465.99999999999994" as="targetPoint" />
          </mxGeometry>
        </mxCell>
        <mxCell id="xSYHZnATKcrCsA-c4XPN-94" value="" style="endArrow=classic;html=1;rounded=0;fontSize=10;entryX=0;entryY=0.25;entryDx=0;entryDy=0;entryPerimeter=0;" edge="1" parent="1">
          <mxGeometry width="50" height="50" relative="1" as="geometry">
            <mxPoint x="412" y="559.94" as="sourcePoint" />
            <mxPoint x="412" y="466" as="targetPoint" />
          </mxGeometry>
        </mxCell>
        <mxCell id="xSYHZnATKcrCsA-c4XPN-95" value="" style="endArrow=classic;html=1;rounded=0;fontSize=10;entryX=0;entryY=0.25;entryDx=0;entryDy=0;entryPerimeter=0;" edge="1" parent="1">
          <mxGeometry width="50" height="50" relative="1" as="geometry">
            <mxPoint x="247.88" y="559.94" as="sourcePoint" />
            <mxPoint x="247.88" y="466" as="targetPoint" />
          </mxGeometry>
        </mxCell>
        <mxCell id="xSYHZnATKcrCsA-c4XPN-96" value="Clk" style="rounded=0;whiteSpace=wrap;html=1;" vertex="1" parent="1">
          <mxGeometry x="123.94" y="550" width="80" height="20" as="geometry" />
        </mxCell>
      </root>
    </mxGraphModel>
  </diagram>
</mxfile>
